<?xml version="1.0" standalone="no"?>
<!DOCTYPE svg PUBLIC "-//W3C//DTD SVG 20010904//EN"
 "http://www.w3.org/TR/2001/REC-SVG-20010904/DTD/svg10.dtd">
<svg version="1.0" xmlns="http://www.w3.org/2000/svg"
 width="399.000000pt" height="399.000000pt" viewBox="0 0 399.000000 399.000000"
 preserveAspectRatio="xMidYMid meet">
<metadata>
Created by potrace 1.14, written by Peter Selinger 2001-2017
</metadata>
<g transform="translate(0.000000,399.000000) scale(0.100000,-0.100000)"
fill="#000000" stroke="none">
<path d="M0 1995 l0 -1995 505 0 c330 0 505 3 505 10 0 14 27 12 33 -2 3 -10
9 -10 26 0 17 10 21 10 21 0 0 -9 3 -8 10 2 6 10 10 11 10 3 0 -7 11 -13 25
-13 15 0 25 6 25 15 0 9 6 12 15 9 8 -4 12 -10 9 -15 -3 -5 592 -9 1401 -9
l1405 0 -1 875 c0 481 -4 875 -8 875 -5 0 -11 -13 -14 -29 -4 -18 -14 -32 -27
-36 -11 -4 -19 -9 -16 -13 2 -4 -1 -18 -6 -32 -9 -24 -10 -24 -24 -6 -13 19
-14 19 -34 1 -11 -10 -18 -20 -16 -24 2 -3 0 -24 -4 -46 -6 -31 -8 -34 -9 -12
0 15 -4 27 -8 28 -57 6 -63 4 -63 -19 0 -13 -4 -20 -10 -17 -6 4 -7 11 -4 17
4 6 0 14 -7 19 -23 15 -30 10 -18 -12 9 -17 7 -30 -7 -60 -19 -43 -40 -53 -30
-14 5 20 3 23 -11 18 -15 -5 -16 -3 -5 8 6 7 11 27 11 43 -1 17 -3 23 -6 14
-2 -10 -8 -18 -11 -19 -50 -5 -83 -3 -109 10 -39 17 -47 35 -26 53 14 11 16
11 11 -2 -4 -11 0 -16 12 -16 15 0 17 4 8 21 -9 16 -8 18 3 8 19 -18 29 -16
29 7 0 13 5 18 15 14 10 -4 13 1 12 20 -1 14 3 25 8 25 6 0 9 -6 7 -14 -1 -7
4 -15 11 -18 10 -4 13 6 11 37 -1 22 2 48 7 56 7 12 8 11 9 -6 0 -16 6 -21 29
-21 28 0 29 2 26 38 -3 32 0 39 18 45 26 8 37 22 37 47 0 11 9 30 20 44 18 23
20 23 22 7 0 -11 2 -23 3 -29 2 -5 3 -26 4 -45 l2 -35 14 25 c8 14 15 45 15
70 0 60 9 90 26 90 8 0 14 6 14 13 0 6 5 4 11 -5 19 -33 27 -19 31 50 2 43 -1
71 -9 77 -16 13 -5 65 14 65 11 0 12 11 8 53 -4 28 -8 57 -10 64 -2 7 0 15 5
18 6 4 10 15 10 26 0 10 6 19 14 19 8 0 13 9 12 24 -1 15 -6 22 -15 18 -10 -4
-12 1 -7 15 5 15 1 22 -14 26 -23 6 -27 27 -5 27 17 0 20 16 4 25 -6 4 -17 -1
-25 -11 -12 -15 -14 -16 -12 -3 2 9 -11 28 -29 43 -34 29 -72 94 -66 114 3 7
-1 10 -9 7 -14 -5 -73 82 -69 103 1 6 -2 12 -8 12 -13 0 -87 80 -83 91 1 6 -4
9 -12 7 -16 -4 -106 59 -106 73 0 6 -4 8 -9 4 -6 -3 -15 4 -21 15 -6 11 -17
20 -25 20 -9 0 -12 6 -9 15 4 8 1 15 -5 15 -6 0 -11 -5 -11 -11 0 -7 -9 -5
-22 5 -42 30 -102 56 -127 56 -15 0 -21 3 -14 8 6 4 -11 7 -38 8 -27 0 -55 6
-61 12 -7 7 -27 12 -44 12 -18 0 -36 5 -40 11 -9 15 -216 6 -259 -11 -43 -17
-145 -23 -145 -9 0 8 -4 8 -14 0 -8 -7 -17 -8 -20 -3 -7 11 -129 -3 -158 -19
-38 -20 -98 -82 -104 -106 -4 -12 -9 -21 -13 -18 -4 2 -18 -14 -32 -35 -13
-22 -30 -40 -37 -40 -7 0 -38 -9 -69 -20 -72 -25 -113 -63 -112 -104 0 -27 2
-28 9 -11 l9 20 0 -20 c1 -11 4 -30 7 -42 4 -14 2 -23 -5 -23 -6 0 -11 6 -11
14 0 30 -20 26 -27 -5 -3 -17 -14 -34 -23 -36 -14 -4 -16 -19 -16 -101 l1 -96
-65 -38 c-71 -42 -69 -50 5 -17 36 16 50 18 59 9 8 -8 7 -10 -6 -5 -20 8 -25
-10 -5 -19 6 -3 0 -4 -15 -2 -16 2 -28 -1 -28 -5 0 -5 -20 -9 -44 -9 -23 0
-57 -5 -73 -11 -24 -8 -39 -7 -66 5 -41 17 -89 8 -145 -26 -19 -12 -52 -22
-73 -23 -41 -3 -63 -14 -41 -22 6 -3 12 -12 13 -21 0 -13 2 -13 6 -3 3 8 11
-1 19 -24 7 -21 11 -42 8 -47 -9 -14 7 -68 19 -65 7 1 13 -12 15 -31 3 -27 6
-31 17 -22 11 9 15 7 21 -14 8 -31 33 -40 91 -31 38 5 45 4 40 -8 -4 -10 0
-14 11 -12 9 1 16 10 16 19 -2 12 4 15 20 11 11 -2 16 -2 9 1 -13 6 7 51 29
65 10 7 9 9 -3 9 -12 0 -16 9 -15 33 1 18 5 38 10 45 11 18 109 83 115 76 3
-3 -1 -9 -9 -14 -12 -8 -9 -10 10 -10 23 -1 23 -2 8 -14 -10 -7 -15 -16 -12
-19 7 -6 44 29 44 42 0 4 12 6 28 4 21 -4 24 -2 12 6 -12 9 -10 11 10 12 21 0
22 2 6 8 -14 5 -8 9 27 18 33 7 47 7 50 -1 6 -15 -10 -126 -19 -134 -4 -4 -4
7 -1 25 7 36 -8 55 -18 23 -3 -11 -16 -25 -27 -31 -17 -9 -18 -13 -7 -20 11
-8 10 -12 -5 -24 -11 -8 -25 -15 -31 -15 -7 0 -10 -12 -7 -29 3 -20 8 -28 18
-24 8 3 14 0 14 -6 0 -6 -4 -11 -10 -11 -5 0 -10 -7 -10 -15 0 -8 7 -15 15
-15 26 0 16 -18 -12 -23 -27 -4 -27 -4 -5 -12 12 -4 22 -14 22 -21 0 -17 -17
-19 -22 -2 -3 7 -14 9 -31 4 -17 -4 -24 -11 -21 -20 6 -16 -29 -31 -47 -20 -8
4 -9 3 -5 -4 4 -7 19 -12 33 -12 22 0 24 -2 13 -15 -7 -9 -13 -34 -12 -55 1
-22 -3 -40 -8 -40 -6 0 -10 -4 -10 -9 0 -5 9 -7 20 -4 23 6 25 0 10 -28 -12
-21 -45 -27 -37 -6 4 10 -10 14 -59 15 -63 1 -105 11 -216 51 -72 26 -123 27
-172 1 -22 -10 -42 -17 -47 -15 -4 3 -10 1 -14 -4 -3 -6 14 -15 37 -21 45 -12
118 -56 118 -71 0 -5 -9 -9 -20 -9 -38 0 -76 -28 -95 -69 -11 -26 -25 -41 -36
-41 -11 0 -21 -10 -25 -24 -5 -23 -64 -85 -64 -69 0 5 -6 -1 -13 -12 -13 -22
-19 -61 -19 -118 0 -30 -3 -36 -13 -27 -11 9 -13 2 -12 -37 0 -26 5 -51 11
-55 6 -4 6 -14 0 -27 -8 -20 -15 -16 -104 60 -52 45 -113 95 -135 112 -71 55
-255 209 -287 239 -10 10 -22 18 -26 18 -5 0 -38 -32 -73 -72 -118 -133 -162
-179 -189 -198 -25 -18 -30 -18 -75 -5 -26 8 -51 12 -55 10 -17 -11 -21 17 -6
34 9 10 16 29 16 44 0 14 8 32 18 39 28 21 26 45 -5 53 -25 6 -26 7 -9 17 10
6 36 10 57 10 22 -1 39 2 39 4 0 17 -23 43 -32 38 -7 -4 -8 -3 -4 4 4 7 22 12
40 12 25 0 35 5 39 20 5 21 -7 28 -18 10 -3 -5 -14 -10 -23 -9 -11 0 -12 3 -4
6 6 2 12 12 12 20 0 14 -3 13 -24 -1 -20 -12 -56 -14 -56 -1 0 14 24 65 31 65
12 0 11 -14 -2 -27 -6 -6 -9 -19 -7 -29 4 -16 6 -15 16 7 6 15 19 29 28 33 12
5 14 10 7 14 -7 5 -7 15 -1 32 6 15 12 20 15 13 7 -18 33 -16 33 2 0 8 6 15
14 15 7 0 25 6 39 13 l25 13 -34 23 c-40 28 -55 22 -23 -8 13 -12 17 -21 11
-21 -12 0 -27 15 -56 55 -12 16 -16 17 -30 6 -9 -7 -13 -17 -10 -23 3 -5 11
-4 20 3 19 15 31 -15 14 -36 -10 -13 -14 -12 -27 1 -9 9 -24 13 -34 11 -26 -7
-24 -1 12 34 17 17 37 28 45 25 19 -7 28 17 15 41 -6 12 -6 25 0 34 7 11 9 11
9 -3 0 -14 8 -18 35 -18 33 0 48 14 24 22 -7 2 -7 11 0 28 8 22 10 22 11 5 l1
-20 9 20 c8 19 9 19 9 -4 1 -17 5 -22 17 -17 9 3 18 6 20 6 2 0 4 18 4 41 0
22 5 49 10 60 7 13 7 19 0 19 -5 0 -10 12 -10 27 0 25 -1 26 -13 8 -16 -20
-38 -13 -36 13 1 15 2 15 6 0 6 -26 23 -22 23 5 0 12 7 30 14 40 13 16 14 16
20 -5 3 -13 6 -34 7 -48 1 -21 2 -22 6 -5 3 11 12 28 20 37 16 18 10 38 -13
38 -8 0 -14 8 -14 18 0 13 2 14 9 3 5 -7 14 -10 20 -7 6 4 11 2 11 -3 0 -6 5
-11 10 -11 6 0 10 7 10 15 0 8 4 14 8 13 12 -4 72 54 72 69 0 7 -8 17 -17 23
-15 8 -13 9 10 4 22 -5 26 -3 21 10 -5 12 -2 15 10 10 12 -5 18 2 22 25 4 17
11 28 16 25 6 -4 8 -17 5 -30 -2 -13 0 -24 4 -24 5 0 9 5 9 11 0 6 6 9 13 6 7
-3 13 5 14 21 0 14 -2 20 -6 14 -4 -7 -11 -5 -19 8 -7 11 -8 21 -2 25 5 3 7
12 3 20 -3 8 0 15 6 15 6 0 11 -8 11 -17 0 -13 2 -15 8 -5 7 10 13 6 28 -13
24 -32 38 -32 30 0 -5 19 -1 28 17 40 14 8 31 13 40 10 8 -4 18 -2 21 3 3 6
-1 12 -9 16 -19 7 -20 26 -1 26 16 0 29 41 20 64 -4 12 -2 15 9 11 11 -5 13 0
9 21 -4 23 -2 25 16 19 20 -6 21 -3 16 23 -5 25 -2 31 15 37 30 9 26 27 -4 19
-15 -4 -25 -2 -25 5 0 6 7 11 15 11 25 0 17 17 -12 25 l-28 7 25 11 c21 8 22
11 8 14 -28 7 -21 23 9 23 14 0 24 -3 20 -6 -3 -3 0 -12 6 -19 16 -18 37 0 37
31 0 18 6 24 22 24 17 0 19 3 10 12 -16 16 -15 28 3 28 20 0 19 16 -2 30 -17
11 -17 11 0 6 10 -3 22 -6 27 -6 4 0 11 -16 14 -35 9 -44 26 -36 26 11 0 36
25 49 33 17 2 -10 3 -8 2 5 -3 27 11 38 30 22 19 -15 26 1 16 37 -5 17 -6 36
-2 42 11 17 43 -22 35 -43 -3 -9 -1 -16 5 -16 6 0 11 9 11 20 0 10 6 23 14 27
15 9 11 63 -5 63 -5 0 -9 11 -9 25 0 22 2 24 14 13 8 -7 11 -17 8 -23 -3 -5 2
-4 11 4 12 10 14 18 7 31 -14 27 -12 47 6 54 9 4 13 2 8 -5 -7 -12 9 -49 38
-88 14 -19 18 -20 18 -7 0 10 14 38 32 64 40 60 37 57 45 48 4 -4 1 -11 -6
-15 -11 -7 -10 -13 2 -36 10 -20 16 -24 22 -15 4 7 2 16 -6 21 -11 7 -11 11
-1 21 10 10 15 10 22 -2 9 -13 11 -13 19 0 5 8 7 18 5 22 -3 4 0 16 5 25 9 16
11 15 11 -7 l1 -25 10 24 c7 18 14 22 33 17 27 -7 37 0 29 20 -6 16 -43 19
-43 3 0 -5 -4 -8 -10 -4 -5 3 -7 11 -4 18 5 13 94 11 94 -3 0 -5 8 -6 19 -3
12 3 26 -5 40 -23 27 -34 27 -53 1 -29 -11 10 -20 24 -20 32 0 7 -4 13 -10 13
-5 0 -10 -5 -10 -11 0 -5 -4 -8 -8 -5 -4 2 -14 1 -22 -5 -13 -7 -12 -9 3 -9
11 0 17 -8 17 -22 0 -21 1 -21 16 -6 15 15 18 14 40 -9 13 -14 24 -21 24 -14
0 6 7 11 16 11 8 0 12 5 9 10 -4 6 -10 8 -15 5 -4 -3 -6 5 -2 17 4 15 2 19 -7
13 -10 -6 -11 -3 -1 15 7 12 8 20 2 16 -5 -3 -15 1 -22 9 -10 13 -9 15 9 15
11 0 21 5 21 10 0 6 -7 10 -15 10 -8 0 -15 5 -15 10 0 6 7 10 15 10 8 0 15 -5
15 -11 0 -6 8 -8 19 -4 13 4 20 1 23 -11 3 -16 4 -16 21 0 25 26 29 16 5 -13
-16 -21 -22 -23 -39 -13 -26 16 -24 4 3 -19 27 -24 34 -24 42 4 l6 22 13 -22
c9 -16 16 -20 27 -13 12 8 12 12 3 18 -10 6 -10 12 2 28 8 10 15 27 15 37 0
11 4 15 12 11 7 -4 8 -3 4 4 -4 6 -12 9 -19 6 -16 -6 -59 34 -54 49 2 7 11 11
21 9 9 -2 16 3 16 10 1 7 9 2 20 -11 15 -18 20 -19 20 -7 0 23 19 20 29 -6 5
-14 10 -17 15 -10 4 6 2 20 -4 31 -14 26 -13 31 6 31 8 0 13 -3 11 -7 -3 -5
-1 -17 4 -28 7 -18 8 -18 8 5 1 17 13 32 38 49 l36 23 19 -23 c15 -20 19 -22
28 -9 10 15 13 29 11 43 0 4 3 7 9 7 15 0 12 38 -2 43 -7 2 -5 3 5 2 9 -2 17
2 17 8 0 7 7 -1 15 -17 16 -31 11 -50 -11 -42 -27 10 -14 -13 20 -33 40 -25
46 -26 46 -5 0 14 1 14 16 0 18 -18 34 -21 34 -5 0 5 5 7 11 3 8 -4 8 -9 0
-17 -17 -17 -13 -30 9 -24 10 3 21 0 23 -7 2 -6 8 -7 13 -3 4 4 3 17 -4 27
-10 16 -10 20 1 20 11 0 53 79 45 84 -2 2 -19 7 -38 12 -22 6 -36 17 -38 29
-3 16 -1 18 9 8 15 -15 49 -17 49 -4 0 5 -6 11 -12 13 -8 3 -4 9 10 17 12 6
28 8 35 4 12 -7 17 -9 50 -11 9 -1 17 -10 17 -19 0 -15 2 -14 15 3 13 18 14
16 15 -21 0 -31 -3 -37 -11 -25 -9 12 -10 12 -5 -3 3 -10 6 -23 6 -28 0 -5 10
-9 23 -9 23 0 62 -20 40 -20 -7 0 -13 -4 -13 -10 0 -5 7 -10 15 -10 8 0 15 7
15 15 0 9 10 15 23 16 12 0 32 2 45 3 16 2 22 -3 22 -16 0 -10 7 -18 15 -18 8
0 15 7 15 15 0 8 5 15 11 15 6 0 9 -7 5 -15 -3 -8 -1 -15 4 -15 5 0 11 -10 14
-22 2 -13 2 7 0 45 l-5 67 27 0 c15 0 32 -7 39 -16 10 -14 15 -13 41 15 29 31
54 40 54 20 0 -8 5 -7 15 1 9 7 19 10 22 6 4 -4 3 -10 -3 -14 -6 -4 -14 -20
-18 -37 -6 -24 -5 -28 5 -17 7 6 22 12 32 12 13 0 17 5 14 15 -4 8 -2 17 3 20
6 4 10 -3 10 -14 0 -11 8 -25 18 -30 9 -6 13 -11 8 -11 -6 0 -1 -7 10 -15 18
-15 18 -15 -8 -9 -17 4 -28 2 -28 -4 0 -6 20 -14 45 -18 50 -7 61 -24 18 -25
-16 0 -22 -3 -14 -6 8 -3 25 -15 38 -27 25 -21 79 -39 86 -27 5 7 1 -7 -8 -34
-6 -18 -5 -18 5 -2 11 18 36 25 25 7 -4 -6 7 -10 25 -10 23 0 33 -6 40 -25 5
-14 16 -25 23 -25 7 0 22 -7 33 -15 18 -14 17 -14 -13 -15 -23 0 -33 5 -33 15
0 18 -17 20 -22 3 -5 -14 14 -58 25 -58 4 0 10 7 13 15 8 19 24 19 24 0 0 -23
29 -6 36 21 3 13 10 24 15 24 5 0 6 -8 2 -17 -5 -15 -3 -16 8 -5 7 6 21 12 32
12 15 0 14 -3 -8 -23 -32 -27 -26 -61 11 -54 15 3 21 0 17 -9 -3 -9 -11 -10
-29 -4 -13 5 -30 7 -38 4 -8 -3 -17 -1 -21 5 -4 8 -12 6 -22 -5 -11 -11 -26
-14 -47 -10 l-31 6 23 -22 c19 -20 24 -21 33 -8 8 13 11 13 23 -3 8 -11 15
-14 18 -7 5 15 38 1 38 -16 0 -8 5 -14 11 -14 5 0 7 -4 4 -10 -3 -5 -2 -10 4
-10 5 0 12 6 14 13 3 6 6 0 6 -15 1 -29 16 -38 24 -15 6 18 57 -12 57 -34 0
-19 26 -33 35 -19 4 6 0 10 -7 10 -8 0 -14 15 -15 40 -2 33 1 40 16 40 10 0
22 -10 26 -22 17 -50 23 -62 24 -50 1 6 6 12 12 12 6 0 9 -7 5 -15 -3 -8 4
-21 15 -29 20 -13 20 -15 2 -24 -10 -6 -14 -14 -10 -18 5 -5 12 -2 17 5 4 8
15 11 24 8 9 -4 16 -2 16 3 0 6 9 10 20 10 11 0 20 -4 20 -9 0 -6 9 -9 20 -8
11 1 20 5 20 9 0 4 12 8 26 8 19 0 25 -4 21 -15 -4 -8 -2 -17 4 -21 6 -4 6
-11 -2 -20 -9 -11 -8 -14 5 -14 10 0 16 9 17 23 l0 22 9 -21 c5 -12 13 -25 19
-29 6 -3 11 -15 11 -26 0 -14 6 -19 18 -17 16 3 17 39 20 561 l2 557 -1995 0
-1995 0 0 -1995z m2770 1613 c0 -18 2 -20 9 -9 8 12 11 9 17 -13 5 -19 2 -31
-7 -37 -12 -8 -12 -10 1 -18 8 -6 11 -14 6 -18 -5 -4 -11 -2 -13 5 -3 6 -13
12 -23 12 -25 0 -38 62 -18 84 19 22 28 20 28 -6z m-60 2 c0 -5 -2 -10 -4 -10
-3 0 -8 5 -11 10 -3 6 -1 10 4 10 6 0 11 -4 11 -10z m260 -5 c14 -16 10 -18
-14 -9 -9 3 -16 10 -16 15 0 14 16 11 30 -6z m-650 -15 c0 -5 -5 -10 -11 -10
-5 0 -7 5 -4 10 3 6 8 10 11 10 2 0 4 -4 4 -10z m107 3 c-4 -3 -2 -12 4 -20 9
-10 7 -13 -10 -13 -32 0 -26 33 8 39 2 1 1 -2 -2 -6z m433 -3 c0 -5 -5 -10
-11 -10 -5 0 -7 5 -4 10 3 6 8 10 11 10 2 0 4 -4 4 -10z m-740 -90 c0 -5 -7
-10 -16 -10 -8 0 -12 5 -9 10 3 6 10 10 16 10 5 0 9 -4 9 -10z m307 -5 c9 -24
-1 -27 -15 -5 -8 13 -8 20 -2 20 6 0 13 -7 17 -15z m-270 -21 c-3 -3 -12 -4
-19 -1 -8 3 -5 6 6 6 11 1 17 -2 13 -5z m-237 -44 c0 -5 -5 -10 -11 -10 -5 0
-7 5 -4 10 3 6 8 10 11 10 2 0 4 -4 4 -10z m74 -45 c7 -18 -18 -37 -38 -29 -9
3 -16 14 -16 23 0 20 46 25 54 6z m-214 -26 c0 -6 -4 -7 -10 -4 -5 3 -10 11
-10 16 0 6 5 7 10 4 6 -3 10 -11 10 -16z m1550 11 c0 -5 -2 -10 -4 -10 -3 0
-8 5 -11 10 -3 6 -1 10 4 10 6 0 11 -4 11 -10z m68 -10 c11 -18 10 -20 -8 -20
-13 0 -20 7 -20 20 0 11 3 20 8 20 4 0 13 -9 20 -20z m-1348 -26 c0 -17 -22
-14 -28 4 -2 7 3 12 12 12 9 0 16 -7 16 -16z m1497 -10 c-3 -3 -12 -4 -19 -1
-8 3 -5 6 6 6 11 1 17 -2 13 -5z m-27 -24 c0 -5 -9 -10 -21 -10 -11 0 -17 5
-14 10 3 6 13 10 21 10 8 0 14 -4 14 -10z m-1850 -57 c-11 -17 -11 -17 -6 0 3
10 6 24 7 30 0 9 2 9 5 0 3 -7 0 -20 -6 -30z m1927 21 c-3 -3 -12 -4 -19 -1
-8 3 -5 6 6 6 11 1 17 -2 13 -5z m-17 -65 c0 -5 4 -8 8 -5 4 2 14 1 22 -5 13
-7 12 -9 -2 -9 -23 0 -48 11 -48 21 0 5 5 9 10 9 6 0 10 -5 10 -11z m180 -19
c0 -5 -2 -10 -4 -10 -3 0 -8 5 -11 10 -3 6 -1 10 4 10 6 0 11 -4 11 -10z
m-210 -40 c0 -5 -7 -10 -16 -10 -8 0 -12 5 -9 10 3 6 10 10 16 10 5 0 9 -4 9
-10z m247 -36 c-3 -3 -12 -4 -19 -1 -8 3 -5 6 6 6 11 1 17 -2 13 -5z m-57 -14
c0 -5 -5 -10 -11 -10 -5 0 -7 5 -4 10 3 6 8 10 11 10 2 0 4 -4 4 -10z m-2276
-22 c8 -32 8 -35 -8 -35 -8 0 -12 6 -9 13 2 6 0 15 -6 19 -16 9 -14 25 3 25 7
0 16 -10 20 -22z m-77 -25 c-17 -18 -22 -8 -11 22 5 12 10 13 17 6 8 -8 6 -16
-6 -28z m2461 2 c-9 -9 -30 14 -23 25 6 9 10 8 17 -4 6 -10 8 -19 6 -21z m-29
-5 c11 0 11 -3 1 -15 -11 -13 -15 -13 -22 -3 -6 10 -10 10 -18 -2 -7 -12 -12
-12 -22 -2 -9 9 -9 12 1 12 7 0 9 5 5 12 -5 8 0 9 17 5 13 -4 30 -7 38 -7z
m-82 -6 c-3 -3 -12 -4 -19 -1 -8 3 -5 6 6 6 11 1 17 -2 13 -5z m-2456 -41
c-12 -20 -14 -14 -5 12 4 9 9 14 11 11 3 -2 0 -13 -6 -23z m79 11 c0 -8 -4
-12 -10 -9 -5 3 -10 10 -10 16 0 5 5 9 10 9 6 0 10 -7 10 -16z m-193 -76 c-2
-13 -4 -3 -4 22 0 25 2 35 4 23 2 -13 2 -33 0 -45z m-27 -38 c0 -5 -2 -10 -4
-10 -3 0 -8 5 -11 10 -3 6 -1 10 4 10 6 0 11 -4 11 -10z m1264 -72 c22 1 53
-18 53 -33 0 -5 -14 -14 -30 -20 -17 -5 -33 -16 -35 -24 -4 -11 3 -13 30 -8
38 6 69 -5 48 -18 -8 -5 -7 -12 5 -25 15 -17 18 -80 3 -80 -4 0 -8 -7 -8 -15
0 -12 -4 -13 -27 -3 -46 20 -93 70 -93 98 -1 23 -2 24 -14 7 -14 -18 -15 -18
-25 0 -6 10 -11 13 -11 6 0 -7 -14 -10 -35 -8 -19 2 -35 -1 -35 -6 0 -16 -19
-9 -30 11 -8 15 -8 30 0 55 9 27 19 37 48 45 20 5 45 10 54 10 9 0 20 5 23 10
3 6 18 7 33 3 15 -4 36 -6 46 -5z m1298 -39 c16 -12 27 -23 24 -26 -5 -5 -76
35 -76 43 0 10 24 2 52 -17z m-2594 -17 c2 -7 -3 -12 -12 -12 -9 0 -16 7 -16
16 0 17 22 14 28 -4z m-123 -22 c3 -5 1 -10 -4 -10 -6 0 -11 5 -11 10 0 6 2
10 4 10 3 0 8 -4 11 -10z m51 -55 c0 -18 -3 -32 -8 -29 -13 8 -8 64 6 64 1 0
1 -16 2 -35z m-56 5 c0 -11 5 -20 11 -20 5 0 7 -5 4 -10 -4 -6 -10 -8 -14 -5
-12 7 -20 55 -10 55 5 0 9 -9 9 -20z m149 13 c0 -5 -4 -17 -9 -28 -8 -18 -9
-17 -9 8 -1 15 4 27 9 27 6 0 10 -3 9 -7z m-109 -83 c0 -5 -4 -10 -10 -10 -5
0 -10 5 -10 10 0 6 5 10 10 10 6 0 10 -4 10 -10z m-10 -24 c0 -3 -4 -8 -10
-11 -5 -3 -10 -1 -10 4 0 6 5 11 10 11 6 0 10 -2 10 -4z m33 -40 l6 -39 -20
22 c-16 17 -18 25 -9 42 14 25 16 24 23 -25z m1095 -2 c12 -4 22 -14 22 -24 0
-10 5 -20 12 -22 7 -3 9 -12 5 -22 -5 -13 -16 -16 -39 -14 -31 3 -33 6 -36 46
-3 44 -1 46 36 36z m232 -19 c6 -8 9 -19 6 -24 -4 -5 -2 -12 4 -16 5 -3 10
-15 10 -26 0 -15 -7 -19 -30 -19 -36 0 -100 25 -100 39 0 12 29 41 41 41 6 0
7 5 4 10 -10 16 51 12 65 -5z m1098 4 c60 -15 100 -45 155 -117 95 -123 141
-244 117 -306 -15 -41 -22 -27 -9 19 8 29 8 40 0 43 -6 2 -11 17 -11 33 0 16
-4 29 -9 29 -5 0 -17 21 -25 48 -17 51 -118 186 -131 174 -5 -4 -4 -1 0 7 6
11 4 13 -8 8 -9 -3 -31 1 -49 10 -35 18 -179 30 -222 19 -14 -3 -26 -12 -26
-18 0 -9 3 -9 12 0 7 7 26 12 43 12 28 0 27 -2 -20 -24 -29 -13 -55 -33 -62
-47 l-11 -24 -10 25 -9 25 -22 -35 c-11 -19 -19 -40 -17 -46 3 -7 -6 -22 -19
-34 -14 -13 -22 -27 -19 -31 3 -5 -1 -9 -9 -9 -28 0 22 108 75 162 80 82 167
106 286 77z m-1033 -99 c7 -23 25 -27 25 -5 0 8 5 15 11 15 6 0 8 -7 4 -17 -5
-15 -4 -16 6 -5 16 15 29 16 29 1 0 -5 -4 -7 -10 -4 -5 3 -10 -1 -10 -9 0 -18
0 -18 -57 -7 -31 6 -40 5 -37 -4 7 -18 -124 -31 -140 -15 -8 10 -4 11 19 7 17
-2 39 -1 50 3 16 7 14 9 -13 9 -56 1 -25 21 33 21 38 0 54 4 59 15 8 21 24 19
31 -5z m-1545 -31 c0 -10 -7 -19 -15 -19 -16 0 -19 9 -9 34 8 20 24 11 24 -15z
m1277 19 c23 -31 23 -48 -1 -48 -16 0 -26 7 -29 21 -4 16 -11 19 -26 14 -12
-3 -21 -2 -21 4 0 19 63 27 77 9z m-1364 -45 c5 -26 4 -26 -9 -8 -15 21 -19
49 -5 41 5 -3 11 -18 14 -33z m-23 -44 c0 -5 -4 -9 -10 -9 -5 0 -10 7 -10 16
0 8 5 12 10 9 6 -3 10 -10 10 -16z m1044 -31 c19 -30 56 -168 56 -211 0 -26
-6 -36 -24 -45 -38 -17 -113 -25 -120 -13 -5 7 3 11 22 11 28 0 29 2 27 40 -2
40 10 51 32 29 8 -8 13 -5 18 10 3 11 3 25 0 31 -8 13 -42 13 -50 0 -11 -18
-21 -11 -44 30 -12 22 -26 38 -30 35 -12 -6 -53 34 -46 46 10 16 98 58 122 59
13 0 29 -10 37 -22z m454 -17 c20 -10 52 -33 70 -51 18 -17 44 -33 56 -34 25
-3 109 -66 88 -66 -8 0 -11 -7 -8 -17 5 -16 -1 -18 -45 -18 -37 1 -53 6 -60
18 -6 9 -16 17 -24 17 -8 0 -11 7 -8 19 3 13 -3 21 -24 29 -37 14 -65 40 -81
75 -23 52 -18 56 36 28z m-353 -30 c-3 -6 -11 -11 -17 -11 -6 0 -6 6 2 15 14
17 26 13 15 -4z m1473 -8 c2 -7 -3 -13 -12 -13 -9 0 -16 -6 -16 -12 0 -8 -3
-9 -8 -3 -4 6 -13 10 -19 11 -37 3 -43 5 -43 13 0 21 91 24 98 4z m-259 -119
c-12 -23 -119 -89 -119 -73 0 5 10 17 22 27 51 41 58 52 52 77 -5 21 -3 25 15
25 12 0 21 6 22 13 0 6 5 -1 10 -18 6 -20 5 -37 -2 -51z m-1437 44 c-7 -7 -12
-8 -12 -2 0 6 3 14 7 17 3 4 9 5 12 2 2 -3 -1 -11 -7 -17z m1557 -51 c1 -10
-3 -15 -9 -12 -5 3 -10 23 -9 43 1 33 2 34 9 12 4 -14 8 -33 9 -43z m-1500 -4
c7 -16 8 -30 3 -35 -6 -6 -14 3 -21 23 -13 38 -13 39 -3 39 5 0 14 -12 21 -27z
m431 12 c0 -8 -7 -15 -16 -15 -14 0 -14 3 -4 15 7 8 14 15 16 15 2 0 4 -7 4
-15z m-453 -57 c10 -11 11 -18 5 -18 -16 0 -32 34 -31 62 2 22 2 22 6 -2 3
-14 12 -33 20 -42z m1443 22 c0 -5 -4 -10 -10 -10 -5 0 -10 5 -10 10 0 6 5 10
10 10 6 0 10 -4 10 -10z m-1000 -24 c0 -3 -4 -8 -10 -11 -5 -3 -10 -1 -10 4 0
6 5 11 10 11 6 0 10 -2 10 -4z m1420 -17 c0 -5 -8 -9 -17 -8 -11 0 -13 3 -5 6
6 2 9 10 6 15 -4 7 -2 8 4 4 7 -4 12 -11 12 -17z m-2910 -25 c0 -13 -4 -24 -9
-24 -5 0 -9 13 -9 30 1 35 18 30 18 -6z m3227 4 c-3 -8 -6 -5 -6 6 -1 11 2 17
5 13 3 -3 4 -12 1 -19z m-727 -9 c0 -5 5 -7 10 -4 6 3 10 1 10 -4 0 -6 -21
-11 -47 -11 -44 1 -47 2 -29 15 23 17 56 20 56 4z m-2590 -9 c0 -5 -4 -10 -10
-10 -5 0 -10 5 -10 10 0 6 5 10 10 10 6 0 10 -4 10 -10z m-545 -30 c3 -5 1
-10 -4 -10 -6 0 -11 5 -11 10 0 6 2 10 4 10 3 0 8 -4 11 -10z m3545 -14 c0
-12 -31 -44 -118 -119 -18 -15 -32 -25 -32 -22 0 3 -9 -3 -20 -13 -26 -24 -87
-42 -159 -48 -31 -3 -72 -7 -91 -9 -24 -3 -30 -2 -20 5 11 7 3 12 -32 21 -26
7 -45 16 -42 20 2 4 -5 11 -16 14 -18 6 -20 12 -14 38 7 34 19 47 44 47 12 0
12 -2 2 -9 -24 -15 -8 -44 42 -75 103 -63 221 -31 365 98 75 67 91 77 91 52z
m27 -238 c-3 -8 -6 -5 -6 6 -1 11 2 17 5 13 3 -3 4 -12 1 -19z m-3185 -38 c-2
-17 -8 -30 -12 -30 -15 0 -19 30 -9 57 13 34 27 15 21 -27z m3157 8 c-1 -39
-2 -41 -8 -13 -4 17 -5 36 -3 43 8 23 12 12 11 -30z m-1875 -22 c-3 -8 -15
-16 -27 -18 -15 -2 -21 -9 -19 -20 2 -10 -2 -18 -7 -18 -15 0 -39 -52 -33 -70
3 -11 1 -12 -7 -4 -6 6 -25 8 -42 6 -24 -3 -28 -8 -24 -23 5 -16 1 -19 -24
-19 -30 0 -30 -1 -13 -18 17 -18 18 -18 38 0 26 23 64 24 65 1 0 -14 2 -13 9
5 10 24 26 29 33 10 4 -8 6 -7 6 3 1 9 8 20 17 23 22 8 33 -2 15 -14 -14 -8
-12 -41 5 -84 11 -29 -14 -10 -37 28 -10 17 -19 25 -19 18 0 -17 20 -55 34
-64 7 -5 5 -8 -6 -8 -9 0 -25 11 -35 23 l-18 24 -1 -39 c-1 -21 -4 -42 -8 -45
-11 -11 -61 33 -64 56 -2 11 -10 21 -18 21 -8 0 -16 0 -19 0 -3 0 -5 -2 -5 -5
0 -3 3 -5 6 -4 9 1 44 -54 39 -60 -3 -2 -14 4 -25 14 -20 18 -21 18 -27 -3 -5
-22 -34 -29 -67 -16 -27 10 -18 54 18 90 19 19 32 34 30 34 -2 0 8 19 21 43
13 23 31 58 40 79 15 33 37 47 73 48 7 0 10 -5 6 -11 -4 -7 -1 -10 7 -7 8 3
15 10 15 16 1 7 2 14 3 17 0 3 17 5 36 5 26 0 33 -4 29 -14z m-1319 -22 c25
-25 25 -25 3 -22 -14 2 -22 -2 -20 -9 1 -7 -2 -13 -8 -13 -5 0 -10 9 -10 20 0
11 5 20 11 20 8 0 8 5 -1 15 -20 25 -3 17 25 -11z m70 -4 c4 -6 1 -17 -5 -25
-7 -8 -10 -22 -6 -30 3 -8 1 -15 -4 -15 -6 0 -10 5 -10 10 0 6 -12 10 -26 10
-15 0 -23 4 -19 10 4 6 16 8 27 4 17 -5 20 -3 14 11 -10 28 14 49 29 25z
m1299 4 c25 -10 19 -22 -9 -16 -14 2 -25 8 -25 13 0 10 12 11 34 3z m282 -21
c-10 -10 -19 5 -10 18 6 11 8 11 12 0 2 -7 1 -15 -2 -18z m-296 -30 c2 -2 -9
-15 -24 -28 -33 -28 -71 -33 -80 -9 -3 8 -2 12 3 9 5 -3 12 3 16 14 3 11 14
22 23 24 17 4 52 -1 62 -10z m-857 -80 c38 -32 87 -73 110 -91 64 -52 290
-243 310 -264 10 -10 13 -18 6 -18 -6 0 -9 -7 -6 -14 4 -11 1 -13 -10 -9 -10
4 -14 2 -10 -4 4 -6 0 -14 -9 -17 -8 -3 -12 -10 -9 -16 3 -5 -3 -10 -14 -10
-11 0 -36 -16 -56 -36 -25 -25 -41 -34 -53 -29 -9 4 -26 9 -37 12 -11 3 -27 7
-35 11 -16 6 -28 9 -48 11 -10 1 -10 6 -2 24 10 20 10 20 -3 5 -8 -11 -28 -18
-48 -18 -69 -1 -91 -55 -43 -104 21 -20 24 -29 15 -39 -6 -8 -8 -17 -5 -20 4
-3 -5 -9 -19 -12 -17 -5 -25 -13 -24 -25 1 -15 5 -16 19 -9 10 5 18 14 18 18
0 14 59 32 66 20 3 -6 4 -11 3 -12 -2 -1 -18 -12 -36 -25 -18 -12 -37 -22 -42
-22 -5 0 -12 -4 -16 -10 -3 -5 7 -5 25 1 16 6 33 15 36 20 3 5 13 9 22 9 10 0
3 -9 -19 -25 -19 -13 -39 -29 -46 -35 -7 -5 -17 -10 -23 -10 -5 0 -10 -4 -10
-10 0 -5 -5 -10 -11 -10 -6 0 -25 -11 -43 -25 -18 -14 -38 -25 -44 -25 -7 0
-12 -7 -12 -15 0 -8 -32 10 -82 47 -86 64 -369 283 -424 328 -18 14 -45 35
-62 48 -16 12 -46 38 -66 57 -20 19 -42 38 -49 42 -7 5 -18 18 -25 31 -14 26
-1 63 41 115 23 27 23 27 72 13 28 -9 95 -16 155 -17 63 -1 118 -7 138 -15 32
-13 35 -12 70 18 20 18 82 78 136 135 77 78 103 100 115 93 9 -5 47 -35 84
-67z m897 52 c-7 -8 -20 -15 -29 -15 -12 0 -10 5 9 20 28 21 39 18 20 -5z
m-203 -41 c-3 -3 -12 -4 -19 -1 -8 3 -5 6 6 6 11 1 17 -2 13 -5z m1989 -10
c18 -15 18 -15 -3 -9 -18 5 -22 3 -17 -9 3 -9 2 -16 -4 -16 -5 0 -12 11 -14
25 -6 29 9 33 38 9z m211 -36 c-3 -7 -5 -2 -5 12 0 14 2 19 5 13 2 -7 2 -19 0
-25z m-2033 6 c9 -24 2 -26 -12 -4 -7 11 -8 20 -3 20 5 0 12 -7 15 -16z m1970
-8 c-3 -8 -1 -17 5 -21 6 -3 11 -11 11 -17 0 -7 -6 -6 -15 2 -17 14 -20 50 -5
50 5 0 7 -6 4 -14z m204 -10 c3 -13 -1 -17 -14 -14 -11 2 -20 11 -22 22 -3 13
1 17 14 14 11 -2 20 -11 22 -22z m-278 4 c0 -5 -5 -10 -11 -10 -5 0 -7 5 -4
10 3 6 8 10 11 10 2 0 4 -4 4 -10z m-63 -6 c-3 -3 -12 -4 -19 -1 -8 3 -5 6 6
6 11 1 17 -2 13 -5z m-2 -41 c-2 -7 2 -13 10 -13 8 0 15 -4 15 -10 0 -16 -13
-12 -45 14 l-30 24 28 -1 c17 -1 25 -7 22 -14z m-3186 -14 c-16 -10 -23 -4
-14 10 3 6 11 8 17 5 6 -4 5 -9 -3 -15z m1616 -8 c-3 -12 -10 -21 -15 -21 -5
0 -4 11 2 25 13 29 23 26 13 -4z m1736 -14 c-10 -9 -11 -8 -5 6 3 10 9 15 12
12 3 -3 0 -11 -7 -18z m-1967 -42 c-7 -18 14 -85 33 -104 13 -12 13 -15 0 -23
-28 -15 -87 18 -116 67 -11 18 -12 17 -6 -10 4 -16 14 -38 22 -48 9 -9 13 -20
9 -24 -4 -5 -12 0 -17 9 -6 10 -20 23 -32 30 -19 9 -20 9 -11 -3 17 -22 24
-49 14 -49 -6 0 -10 6 -10 13 0 6 -21 22 -47 34 -49 22 -79 56 -67 74 3 5 15
7 26 3 11 -3 23 -2 27 4 15 25 34 15 46 -23 13 -39 13 -39 14 -9 2 62 45 73
62 15 7 -22 19 -43 27 -46 21 -8 30 5 10 16 -18 10 -33 62 -23 79 10 16 45 12
39 -5z m161 -53 c-6 -7 -35 18 -35 31 0 5 9 2 20 -8 11 -10 18 -20 15 -23z
m-511 -5 c-1 -10 5 -17 16 -17 9 0 22 -11 28 -25 6 -14 17 -25 24 -25 10 0 10
2 1 8 -16 10 -12 52 5 52 8 0 12 -6 9 -14 -3 -8 1 -20 9 -26 18 -16 18 -36 -1
-44 -8 -3 -15 -10 -15 -16 0 -6 11 -3 25 6 33 22 39 15 19 -25 -13 -26 -14
-38 -6 -57 13 -28 -3 -44 -21 -21 -7 8 -27 21 -44 28 -38 16 -41 29 -13 49 29
21 25 33 -10 27 -23 -5 -33 -1 -49 19 -28 36 -34 60 -21 84 13 25 46 22 44 -3z
m177 -62 c16 -4 29 -11 29 -16 0 -6 -10 -7 -22 -4 -38 12 -88 37 -88 44 0 18
14 18 32 1 12 -10 34 -22 49 -25z m469 15 c9 -4 31 -11 50 -15 19 -4 38 -12
41 -17 4 -6 18 -11 33 -11 14 -1 26 -5 26 -8 0 -4 14 -12 31 -19 25 -11 32
-11 39 0 6 10 10 7 16 -14 4 -16 2 -32 -5 -39 -6 -6 -11 -16 -11 -21 0 -6 5
-4 10 4 8 12 10 10 10 -9 0 -18 -4 -22 -17 -16 -21 8 -22 8 -49 6 -12 0 -24
-7 -27 -14 -4 -10 2 -13 17 -10 13 3 30 -2 39 -11 10 -10 33 -16 67 -16 42 0
49 -2 38 -13 -7 -8 -20 -12 -30 -9 -10 2 -18 -1 -18 -7 0 -10 34 -16 67 -12 6
1 14 -3 18 -9 3 -5 1 -10 -4 -10 -6 0 -11 -9 -11 -20 0 -11 -3 -20 -7 -21 -86
-6 -113 -16 -75 -26 12 -3 22 -8 22 -11 0 -13 -53 -52 -71 -52 -10 0 -19 -4
-19 -9 0 -15 -80 -25 -93 -12 -16 16 -27 13 -20 -6 5 -13 2 -15 -15 -11 -13 4
-22 1 -23 -5 0 -8 -2 -8 -6 1 -2 6 -11 12 -19 12 -8 0 -14 10 -14 23 0 16 -12
27 -43 41 -23 11 -56 35 -74 55 -32 35 -32 36 -13 56 10 11 22 34 26 50 4 17
22 43 40 58 22 18 34 37 34 53 0 26 -23 78 -47 105 -13 15 -10 16 29 7 24 -6
50 -14 58 -18z m205 -50 c-3 -5 -13 -10 -21 -10 -8 0 -12 5 -9 10 3 6 13 10
21 10 8 0 12 -4 9 -10z m-622 -40 l-3 -25 12 23 c6 12 17 22 25 22 11 0 11 -4
3 -21 -11 -20 -11 -20 12 -5 22 15 24 14 24 -7 0 -12 -6 -28 -14 -36 -12 -12
-15 -12 -24 0 -8 11 -9 10 -4 -3 3 -10 1 -18 -4 -18 -5 0 -7 -6 -4 -13 3 -9
-5 -12 -28 -12 -57 2 -66 5 -82 21 -39 38 1 108 57 102 27 -3 32 -7 30 -28z
m133 20 c5 -5 27 -16 49 -24 22 -8 33 -15 25 -15 -17 -1 -100 35 -100 44 0 8
15 6 26 -5z m559 -20 c3 -5 -1 -10 -9 -10 -9 0 -16 5 -16 10 0 6 4 10 9 10 6
0 13 -4 16 -10z m-979 -101 c2 -23 10 -55 18 -71 8 -16 12 -36 9 -45 -4 -10
-2 -14 5 -9 6 3 13 -3 17 -16 4 -13 21 -52 38 -88 18 -37 30 -78 29 -97 -2
-18 4 -38 13 -47 9 -9 12 -16 6 -16 -6 0 -11 -4 -11 -10 0 -5 7 -10 15 -10 8
0 15 -7 15 -15 0 -8 -6 -14 -12 -13 -8 2 -12 -5 -10 -16 2 -11 -1 -15 -7 -11
-6 3 -11 11 -11 16 0 5 -22 32 -50 59 -27 27 -50 56 -50 64 0 9 -40 56 -90
105 -49 49 -90 94 -90 100 0 12 152 172 158 167 2 -3 6 -23 8 -47z m119 45
c26 -10 0 -21 -36 -16 -22 3 -27 7 -18 13 17 10 32 11 54 3z m1725 -14 c0 -5
-5 -10 -11 -10 -5 0 -7 5 -4 10 3 6 8 10 11 10 2 0 4 -4 4 -10z m-1655 -50
c18 -19 17 -20 -4 -20 -25 0 -61 17 -61 28 0 17 48 10 65 -8z m-491 -30 c20 0
31 -19 18 -32 -11 -11 4 -58 19 -58 5 0 6 -7 3 -15 -5 -11 -2 -13 10 -9 9 3
13 10 10 15 -7 12 -2 11 40 -6 20 -8 36 -21 36 -28 0 -9 -2 -9 -8 0 -5 8 -12
9 -22 2 -13 -8 -12 -11 4 -24 14 -10 23 -12 32 -4 9 7 12 6 10 -8 -3 -13 -11
-18 -35 -17 -17 1 -28 -2 -25 -7 3 -5 18 -9 35 -9 18 0 29 -5 29 -14 0 -8 3
-16 8 -19 4 -2 1 -2 -7 0 -8 2 -11 -2 -8 -11 5 -11 -1 -12 -30 -3 -29 9 -32
12 -17 18 15 6 13 8 -9 8 -19 1 -26 -3 -22 -11 4 -7 0 -5 -8 5 -8 9 -21 17
-30 17 -20 0 -31 17 -15 24 9 3 8 8 -5 16 -9 6 -15 15 -12 21 4 5 2 9 -3 9
-13 0 -129 113 -135 133 -4 11 -1 17 11 19 9 0 22 2 29 2 6 1 15 4 19 8 3 4
19 1 35 -7 15 -8 35 -15 43 -15z m484 -29 c3 -8 -1 -12 -9 -9 -7 2 -15 10 -17
17 -3 8 1 12 9 9 7 -2 15 -10 17 -17z m-1231 -25 c3 -6 3 -8 -2 -4 -4 4 -15 2
-23 -5 -13 -9 -14 -9 -8 1 4 7 1 12 -9 12 -9 0 -14 4 -11 9 7 11 44 2 53 -13z
m1303 -25 c0 -5 -9 -11 -20 -14 -22 -6 -28 8 -7 16 19 8 27 8 27 -2z m-1252
-21 c12 -11 19 -27 16 -35 -4 -8 -1 -15 6 -15 6 0 8 5 5 10 -14 22 35 0 69
-31 11 -11 23 -19 28 -19 4 0 8 -7 8 -16 0 -8 5 -12 10 -9 6 3 10 2 10 -2 0
-5 14 -17 32 -28 28 -16 29 -19 13 -25 -17 -6 -17 -7 -2 -13 9 -3 17 -11 17
-18 0 -6 -7 -9 -15 -5 -23 8 -18 -10 7 -26 19 -13 23 -25 25 -79 1 -57 14
-100 42 -149 5 -8 19 -35 30 -60 17 -35 32 -50 62 -63 47 -20 59 -21 59 -4 0
6 9 1 19 -12 10 -14 16 -32 13 -40 -5 -14 -4 -14 14 -1 10 8 23 20 27 25 6 6
7 4 4 -5 -10 -28 -14 -45 -10 -37 11 17 22 5 14 -15 -4 -13 -6 -28 -4 -35 2
-6 -1 -14 -7 -18 -7 -4 -14 2 -17 13 -3 12 -11 18 -18 16 -7 -3 -16 -1 -20 5
-8 14 -25 14 -25 1 0 -5 7 -10 15 -10 21 0 19 -13 -5 -27 -17 -11 -21 -10 -31
9 -9 16 -9 23 0 26 6 2 11 15 11 28 0 17 -6 24 -19 24 -11 0 -21 -5 -23 -12
-2 -6 -10 -8 -17 -4 -9 6 -7 12 8 23 27 18 27 36 0 28 -31 -10 -90 33 -83 62
3 12 -1 32 -10 45 -13 18 -16 19 -16 5 0 -9 5 -17 11 -17 5 0 7 -4 4 -10 -11
-17 -23 -11 -33 18 -8 23 -6 31 6 39 13 8 14 15 6 33 l-11 24 -18 -32 c-11
-18 -26 -32 -35 -32 -11 1 -11 3 4 11 14 9 15 13 6 19 -9 6 -6 10 9 15 28 9
27 21 -5 29 -20 5 -24 11 -18 28 4 14 2 18 -5 14 -6 -4 -11 0 -11 8 0 9 9 16
20 16 11 0 20 6 20 14 0 23 -17 28 -33 11 -22 -22 -34 -19 -39 10 -6 31 -2 34
39 28 21 -3 35 -12 39 -25 3 -11 8 -18 10 -15 2 2 -1 18 -7 36 -8 22 -15 29
-22 22 -7 -7 -19 -1 -37 17 -50 49 -60 55 -66 38 -5 -12 -22 -14 -63 -7 -2 1
2 7 8 15 8 10 9 16 1 21 -5 3 -10 24 -10 46 0 28 -4 39 -15 39 -8 0 -15 7 -15
15 0 23 -27 18 -35 -7 -6 -20 -8 -21 -12 -5 -3 11 3 24 14 32 10 8 13 15 7 15
-7 0 -14 7 -18 15 -4 12 0 14 22 9 26 -6 26 -6 7 9 -16 13 -17 16 -4 17 8 0
25 -9 37 -20z m1937 -80 c-3 -5 -12 -10 -18 -10 -7 0 -6 4 3 10 19 12 23 12
15 0z m-777 -51 c12 -19 11 -19 -8 -9 -11 6 -20 15 -20 20 0 17 15 11 28 -11z
m-463 -19 c3 -5 -1 -10 -9 -10 -8 0 -18 5 -21 10 -3 6 1 10 9 10 8 0 18 -4 21
-10z m-695 -10 c0 -5 -2 -10 -4 -10 -3 0 -8 5 -11 10 -3 6 -1 10 4 10 6 0 11
-4 11 -10z m650 -10 c0 -5 -4 -10 -10 -10 -5 0 -10 5 -10 10 0 6 5 10 10 10 6
0 10 -4 10 -10z m1868 -33 c2 -9 -2 -17 -8 -17 -6 0 -8 5 -5 10 3 6 1 10 -4
10 -6 0 -11 5 -11 11 0 17 25 4 28 -14z m-16 -37 c8 -12 24 -20 40 -20 15 0
29 -4 33 -9 3 -6 -11 -8 -31 -6 -21 2 -41 10 -46 19 -5 9 -18 16 -29 16 -11 0
-17 5 -14 10 10 16 34 11 47 -10z m-42 -25 c11 -13 8 -15 -13 -15 -26 0 -42
12 -30 24 11 11 30 7 43 -9z m-2360 -5 c0 -5 -4 -10 -10 -10 -5 0 -10 5 -10
10 0 6 5 10 10 10 6 0 10 -4 10 -10z m-143 -26 c-3 -3 -12 -4 -19 -1 -8 3 -5
6 6 6 11 1 17 -2 13 -5z m309 -27 c-3 -14 1 -32 9 -43 13 -18 14 -18 8 4 -3
13 -1 22 6 22 6 0 13 -11 17 -25 3 -14 13 -25 21 -25 11 0 12 9 8 38 -5 33 -5
35 7 17 12 -20 14 -25 17 -46 1 -6 10 -8 23 -3 20 6 21 5 10 -9 -17 -21 -82
-28 -89 -9 -5 11 -7 11 -15 0 -7 -10 -11 -9 -23 6 -16 21 -19 53 -9 80 9 24
17 19 10 -7z m1992 6 c22 -22 24 -54 3 -52 -28 2 -32 -1 -20 -14 7 -7 25 -11
42 -9 22 4 28 1 25 -9 -8 -25 -56 -22 -82 4 -25 25 -26 55 -3 85 12 16 15 15
35 -5z m139 -9 c-9 -9 -28 6 -21 18 4 6 10 6 17 -1 6 -6 8 -13 4 -17z m-1820
-51 c-5 -69 -39 -156 -71 -182 -28 -24 -26 -8 6 39 33 48 58 124 58 178 0 17
3 32 6 32 4 0 4 -30 1 -67z m2143 37 c0 -5 -4 -10 -10 -10 -5 0 -10 5 -10 10
0 6 5 10 10 10 6 0 10 -4 10 -10z m-255 -20 c-4 -6 -15 -8 -26 -5 -15 5 -19 1
-19 -15 0 -12 -4 -19 -9 -16 -5 3 -7 15 -4 26 4 14 14 20 35 20 18 0 27 -4 23
-10z m-280 -38 c7 -20 -3 -32 -26 -32 -15 0 -19 -5 -14 -19 3 -12 0 -21 -10
-25 -9 -3 -14 -10 -10 -15 3 -5 1 -12 -5 -16 -13 -8 -13 11 1 37 10 18 9 20
-5 15 -14 -5 -15 -3 -6 13 5 10 10 28 10 39 0 16 6 20 30 18 16 -1 32 -8 35
-15z m516 -5 c-10 -9 -11 -8 -5 6 3 10 9 15 12 12 3 -3 0 -11 -7 -18z m-236 4
c3 -5 1 -12 -5 -16 -5 -3 -10 1 -10 9 0 18 6 21 15 7z m-2315 -14 c0 -17 -37
-39 -45 -27 -8 13 4 32 16 25 5 -4 9 -1 9 4 0 6 5 11 10 11 6 0 10 -6 10 -13z
m240 -58 c0 -8 9 -25 20 -36 l20 -22 -31 -15 c-23 -11 -36 -13 -50 -5 -22 11
-26 21 -5 13 8 -3 17 0 21 5 3 6 11 8 17 5 10 -7 6 40 -9 84 -4 15 -3 15 6 2
6 -8 11 -22 11 -31z m44 15 c9 -8 16 -23 16 -32 0 -13 -5 -11 -20 8 -29 37
-26 55 4 24z m1756 -5 c0 -5 -9 -18 -20 -29 l-20 -20 0 20 c0 11 4 20 10 20 5
0 7 7 4 15 -5 11 -2 13 10 9 9 -3 16 -10 16 -15z m-2120 1 c0 -5 -4 -10 -10
-10 -5 0 -10 5 -10 10 0 6 5 10 10 10 6 0 10 -4 10 -10z m279 -27 c12 -42 10
-46 -13 -37 -28 11 -33 74 -6 74 5 0 14 -17 19 -37z m1884 -2 c5 -20 -9 -41
-27 -41 -5 0 -18 -7 -28 -17 -19 -17 -22 -12 -12 25 4 13 14 22 26 22 14 0 18
5 14 15 -3 9 0 15 8 15 8 0 16 -9 19 -19z m-83 -35 c0 -3 -4 -8 -10 -11 -5 -3
-10 -1 -10 4 0 6 5 11 10 11 6 0 10 -2 10 -4z m-1850 -128 c0 -9 -7 -23 -15
-31 -11 -12 -12 -17 -2 -20 7 -3 5 -6 -5 -6 -9 -1 -19 3 -22 8 -3 5 -16 7 -29
5 -12 -2 -3 3 21 12 23 8 42 22 42 30 0 8 -3 13 -7 13 -19 -3 -23 2 -11 15 15
15 28 3 28 -26z m-50 2 c0 -5 -7 -10 -16 -10 -8 0 -12 5 -9 10 3 6 10 10 16
10 5 0 9 -4 9 -10z m300 -11 c0 -6 10 -19 23 -30 12 -10 16 -18 10 -19 -7 0
-13 4 -13 9 0 4 -12 7 -27 5 -16 -2 -22 -1 -14 2 10 5 11 8 1 14 -7 4 -9 13
-6 19 9 14 26 14 26 0z m-429 -32 c-10 -9 -11 -8 -5 6 3 10 9 15 12 12 3 -3 0
-11 -7 -18z m74 13 c3 -6 -1 -7 -9 -4 -18 7 -21 14 -7 14 6 0 13 -4 16 -10z
m475 -22 c0 -11 -12 -10 -30 2 -12 7 -10 9 8 7 12 0 22 -5 22 -9z m65 -9 c11
-16 1 -19 -13 -3 -7 8 -8 14 -3 14 5 0 13 -5 16 -11z m-375 -9 c0 -5 -4 -10
-10 -10 -5 0 -10 5 -10 10 0 6 5 10 10 10 6 0 10 -4 10 -10z m-70 -10 c12 -8
11 -10 -7 -10 -15 0 -23 -6 -24 -17 0 -15 -2 -15 -8 2 -12 29 11 43 39 25z
m265 -28 c-15 -16 -16 -15 -4 12 7 15 15 23 17 16 3 -7 -3 -19 -13 -28z m75
28 c0 -5 -4 -10 -9 -10 -6 0 -13 5 -16 10 -3 6 1 10 9 10 9 0 16 -4 16 -10z
m-140 -30 c0 -5 8 -11 18 -13 13 -4 11 -5 -5 -6 -13 0 -23 4 -23 9 0 6 -10 8
-24 4 -14 -3 -27 -1 -31 7 -6 9 -2 11 14 6 17 -4 21 -2 17 9 -4 12 -2 12 14 4
11 -6 20 -15 20 -20z m170 20 c0 -5 -2 -10 -4 -10 -3 0 -8 5 -11 10 -3 6 -1
10 4 10 6 0 11 -4 11 -10z m121 -33 c-8 -8 -11 -7 -11 4 0 20 13 34 18 19 3
-7 -1 -17 -7 -23z m-104 -24 c-4 -17 -4 -17 -12 0 -4 9 -4 25 0 35 8 16 8 16
12 0 3 -10 3 -26 0 -35z m33 35 c0 -9 4 -8 11 2 8 12 10 12 7 -4 -4 -27 -24
-31 -31 -6 -3 11 -1 20 4 20 5 0 9 -6 9 -12z m-395 -7 c3 -6 -3 -9 -14 -8 -11
0 -17 5 -15 9 7 11 22 10 29 -1z m285 -1 c0 -5 -7 -10 -15 -10 -8 0 -15 -8
-16 -17 0 -11 -2 -13 -6 -5 -7 19 4 42 22 42 8 0 15 -4 15 -10z m214 -69 c-15
-15 -16 -14 -10 18 3 18 6 41 7 50 0 9 5 1 11 -18 8 -28 6 -37 -8 -50z m-344
39 c0 -13 -11 -13 -30 0 -12 8 -11 10 8 10 12 0 22 -4 22 -10z m60 -6 c0 -8
-5 -12 -10 -9 -6 4 -8 11 -5 16 9 14 15 11 15 -7z m134 -33 c3 -5 -1 -11 -9
-14 -9 -4 -12 -1 -8 9 6 16 10 17 17 5z m-68 -37 c-4 -9 -9 -15 -11 -12 -3 3
-3 13 1 22 4 9 9 15 11 12 3 -3 3 -13 -1 -22z m236 -4 c3 -17 1 -30 -4 -30 -4
0 -8 7 -8 15 0 9 -7 18 -16 22 -13 5 -13 7 -2 14 21 14 25 11 30 -21z m38 10
c0 -5 -4 -10 -10 -10 -5 0 -10 5 -10 10 0 6 5 10 10 10 6 0 10 -4 10 -10z"/>
<path d="M3520 2490 c0 -5 5 -10 11 -10 5 0 7 5 4 10 -3 6 -8 10 -11 10 -2 0
-4 -4 -4 -10z"/>
<path d="M1821 2084 c0 -11 3 -14 6 -6 3 7 2 16 -1 19 -3 4 -6 -2 -5 -13z"/>
<path d="M190 1336 c0 -2 7 -9 15 -16 9 -7 15 -8 15 -2 0 5 -7 12 -15 16 -8 3
-15 4 -15 2z"/>
<path d="M255 1285 c17 -14 34 -25 39 -25 6 0 -5 11 -24 25 -43 32 -54 32 -15
0z"/>
<path d="M321 1233 c7 -12 15 -20 18 -17 3 2 -3 12 -13 22 -17 16 -18 16 -5
-5z"/>
<path d="M384 1185 c8 -8 18 -15 22 -15 3 0 1 7 -6 15 -7 8 -17 15 -22 15 -5
0 -3 -7 6 -15z"/>
<path d="M427 1159 c7 -9 9 -20 5 -24 -4 -5 -1 -5 6 -1 11 7 53 -15 142 -73
13 -9 21 -11 17 -5 -3 6 -33 27 -64 46 -32 19 -71 43 -88 53 -22 15 -27 15
-18 4z"/>
<path d="M616 1042 c17 -16 84 -54 84 -48 0 7 -76 56 -87 56 -4 0 -3 -4 3 -8z"/>
<path d="M396 1027 c3 -10 9 -15 12 -12 3 3 0 11 -7 18 -10 9 -11 8 -5 -6z"/>
<path d="M856 951 c-4 -5 3 -7 14 -4 23 6 26 13 6 13 -8 0 -17 -4 -20 -9z"/>
<path d="M837 899 c7 -7 15 -10 18 -7 3 3 -2 9 -12 12 -14 6 -15 5 -6 -5z"/>
<path d="M590 876 c0 -2 8 -10 18 -17 15 -13 16 -12 3 4 -13 16 -21 21 -21 13z"/>
<path d="M2276 901 c-3 -5 -20 -11 -37 -15 -36 -7 -34 -15 4 -21 31 -6 80 28
54 38 -9 3 -19 2 -21 -2z"/>
<path d="M2125 850 c3 -5 8 -10 11 -10 2 0 4 5 4 10 0 6 -5 10 -11 10 -5 0 -7
-4 -4 -10z"/>
<path d="M1128 833 c7 -3 16 -2 19 1 4 3 -2 6 -13 5 -11 0 -14 -3 -6 -6z"/>
<path d="M432 759 c2 -6 7 -10 11 -10 4 1 15 1 25 1 14 0 15 2 2 10 -20 13
-43 13 -38 -1z"/>
<path d="M2925 3500 c3 -5 8 -10 11 -10 2 0 4 5 4 10 0 6 -5 10 -11 10 -5 0
-7 -4 -4 -10z"/>
<path d="M3072 3497 c-17 -20 4 -57 32 -57 18 0 18 1 4 13 -9 6 -18 23 -20 36
-3 22 -4 23 -16 8z"/>
<path d="M2895 3490 c3 -5 8 -10 11 -10 2 0 4 5 4 10 0 6 -5 10 -11 10 -5 0
-7 -4 -4 -10z"/>
<path d="M2612 3462 c-9 -6 -5 -12 13 -20 33 -15 31 -16 31 8 0 21 -21 26 -44
12z"/>
<path d="M2687 3453 c-3 -5 4 -20 15 -33 19 -25 20 -25 15 -2 -3 13 -1 20 5
16 12 -8 1 -56 -15 -66 -9 -5 -9 -10 1 -20 9 -9 12 -9 12 4 0 9 7 19 16 22 9
3 14 12 11 20 -9 22 5 28 19 8 7 -9 14 -12 14 -6 1 31 -79 80 -93 57z"/>
<path d="M2980 3450 c0 -5 5 -10 10 -10 6 0 10 5 10 10 0 6 -4 10 -10 10 -5 0
-10 -4 -10 -10z"/>
<path d="M3030 3450 c-9 -6 -10 -10 -3 -10 6 0 15 5 18 10 8 12 4 12 -15 0z"/>
<path d="M2217 3443 c-11 -17 13 -28 26 -13 9 10 9 11 0 6 -6 -3 -13 -1 -15 6
-3 9 -6 9 -11 1z"/>
<path d="M2808 3443 c6 -2 18 -2 25 0 6 3 1 5 -13 5 -14 0 -19 -2 -12 -5z"/>
<path d="M2890 3440 c0 -5 5 -10 11 -10 5 0 7 5 4 10 -3 6 -8 10 -11 10 -2 0
-4 -4 -4 -10z"/>
<path d="M2633 3385 c-3 -9 -3 -18 -1 -21 3 -3 8 4 11 16 6 23 -1 27 -10 5z"/>
<path d="M2670 3386 c0 -8 5 -18 10 -21 6 -3 10 1 10 9 0 8 -4 18 -10 21 -5 3
-10 -1 -10 -9z"/>
<path d="M2160 3370 c0 -5 9 -10 20 -10 11 0 20 -4 20 -10 0 -13 27 -13 35 0
3 6 -1 7 -9 4 -11 -4 -16 0 -16 10 0 10 -9 16 -25 16 -14 0 -25 -4 -25 -10z"/>
<path d="M2267 3360 c-6 -22 7 -35 23 -25 8 5 8 11 1 19 -6 7 -8 16 -4 19 3 4
2 7 -4 7 -6 0 -13 -9 -16 -20z"/>
<path d="M2855 3370 c-3 -5 -1 -10 4 -10 6 0 11 5 11 10 0 6 -2 10 -4 10 -3 0
-8 -4 -11 -10z"/>
<path d="M2575 3360 c-3 -5 -1 -10 4 -10 6 0 11 5 11 10 0 6 -2 10 -4 10 -3 0
-8 -4 -11 -10z"/>
<path d="M2497 3349 c7 -7 15 -10 18 -7 3 3 -2 9 -12 12 -14 6 -15 5 -6 -5z"/>
<path d="M2615 3340 c-3 -5 -1 -10 4 -10 6 0 11 5 11 10 0 6 -2 10 -4 10 -3 0
-8 -4 -11 -10z"/>
<path d="M2640 3334 c0 -8 5 -12 10 -9 6 4 8 11 5 16 -9 14 -15 11 -15 -7z"/>
<path d="M2858 3343 c6 -2 18 -2 25 0 6 3 1 5 -13 5 -14 0 -19 -2 -12 -5z"/>
<path d="M2540 3330 c0 -5 5 -10 10 -10 6 0 10 5 10 10 0 6 -4 10 -10 10 -5 0
-10 -4 -10 -10z"/>
<path d="M3340 3320 c0 -5 5 -10 10 -10 6 0 10 5 10 10 0 6 -4 10 -10 10 -5 0
-10 -4 -10 -10z"/>
<path d="M2290 3300 c0 -5 5 -10 10 -10 6 0 10 5 10 10 0 6 -4 10 -10 10 -5 0
-10 -4 -10 -10z"/>
<path d="M3263 3295 c-3 -9 -3 -19 1 -22 3 -4 6 1 6 10 0 10 5 14 15 11 8 -4
15 -1 15 5 0 17 -30 13 -37 -4z"/>
<path d="M3320 3280 c0 -5 4 -10 9 -10 6 0 13 5 16 10 3 6 -1 10 -9 10 -9 0
-16 -4 -16 -10z"/>
<path d="M2655 3260 c-3 -5 1 -10 9 -10 9 0 16 5 16 10 0 6 -4 10 -9 10 -6 0
-13 -4 -16 -10z"/>
<path d="M3171 3257 c-7 -9 -3 -16 15 -24 21 -10 24 -9 24 7 0 22 -25 33 -39
17z"/>
<path d="M3345 3240 c3 -5 8 -10 11 -10 2 0 4 5 4 10 0 6 -5 10 -11 10 -5 0
-7 -4 -4 -10z"/>
<path d="M3055 3230 c3 -5 8 -10 11 -10 2 0 4 5 4 10 0 6 -5 10 -11 10 -5 0
-7 -4 -4 -10z"/>
<path d="M3240 3220 c-8 -5 -12 -12 -9 -15 4 -3 12 1 19 10 14 17 11 19 -10 5z"/>
<path d="M1807 3203 c-3 -5 4 -17 14 -27 19 -19 24 -12 13 18 -6 17 -20 21
-27 9z"/>
<path d="M3273 3197 c-3 -6 -1 -7 6 -3 6 4 14 0 17 -8 8 -20 24 -21 24 -2 0 8
6 16 13 19 6 2 -3 4 -21 4 -18 0 -36 -5 -39 -10z"/>
<path d="M1707 3165 c-10 -14 -15 -30 -12 -35 3 -6 0 -10 -7 -10 -7 0 -18 -11
-25 -25 -14 -30 -10 -31 27 -4 16 12 26 28 23 35 -3 9 2 14 16 14 12 0 21 -5
21 -11 0 -5 5 -7 10 -4 7 4 6 14 -2 28 -7 12 -11 25 -10 30 5 17 -25 4 -41
-18z"/>
<path d="M1760 3179 c0 -5 7 -9 15 -9 7 0 19 -8 24 -17 9 -16 10 -16 11 3 0
15 -8 23 -25 26 -14 3 -25 1 -25 -3z"/>
<path d="M1877 3115 c16 -22 33 -32 33 -20 0 7 -39 45 -45 45 -3 0 2 -11 12
-25z"/>
<path d="M1598 3124 c-5 -4 -8 -16 -8 -28 0 -14 3 -17 11 -9 6 6 9 19 7 28 -1
9 -6 13 -10 9z"/>
<path d="M1835 3109 c-4 -6 -5 -12 -2 -15 2 -3 7 2 10 11 7 17 1 20 -8 4z"/>
<path d="M1540 3005 c-20 -24 -6 -28 15 -5 10 11 13 20 8 20 -6 0 -16 -7 -23
-15z"/>
<path d="M1475 2940 c3 -5 8 -10 11 -10 2 0 4 5 4 10 0 6 -5 10 -11 10 -5 0
-7 -4 -4 -10z"/>
<path d="M1410 2900 c0 -22 5 -40 11 -40 6 0 8 8 4 19 -3 11 -1 22 5 26 15 9
12 35 -5 35 -11 0 -15 -11 -15 -40z"/>
<path d="M1241 2754 c0 -11 3 -14 6 -6 3 7 2 16 -1 19 -3 4 -6 -2 -5 -13z"/>
<path d="M2075 2730 c-9 -17 -15 -36 -13 -42 2 -6 12 6 22 26 22 46 14 60 -9
16z"/>
<path d="M1194 2706 c-3 -8 -4 -23 -1 -33 3 -12 5 -9 6 9 1 16 8 28 19 31 16
4 16 5 -1 6 -10 0 -20 -5 -23 -13z"/>
<path d="M1520 2699 c0 -5 5 -7 10 -4 6 3 10 8 10 11 0 2 -4 4 -10 4 -5 0 -10
-5 -10 -11z"/>
<path d="M3794 2695 c21 -16 32 -13 21 4 -3 6 -14 11 -23 11 -15 -1 -15 -2 2
-15z"/>
<path d="M1395 2660 c-3 -5 -1 -10 4 -10 6 0 11 5 11 10 0 6 -2 10 -4 10 -3 0
-8 -4 -11 -10z"/>
<path d="M1347 2634 c-4 -4 -7 -14 -7 -23 0 -11 3 -12 11 -4 6 6 10 16 7 23
-2 6 -7 8 -11 4z"/>
<path d="M3870 2571 c0 -5 7 -11 14 -14 10 -4 13 -1 9 9 -6 15 -23 19 -23 5z"/>
<path d="M1060 2480 c0 -5 5 -10 10 -10 6 0 10 5 10 10 0 6 -4 10 -10 10 -5 0
-10 -4 -10 -10z"/>
<path d="M2150 2252 c0 -7 -7 -12 -15 -12 -8 0 -15 -8 -15 -17 0 -15 3 -14 22
5 12 12 19 25 15 28 -4 4 -7 2 -7 -4z"/>
<path d="M880 2178 c0 -10 6 -18 14 -18 8 0 22 -3 30 -6 13 -5 15 -2 8 17 -11
28 -52 34 -52 7z"/>
<path d="M837 2166 c-6 -15 1 -26 15 -26 4 0 8 9 8 20 0 23 -15 27 -23 6z"/>
<path d="M784 2138 c1 -7 5 -19 10 -26 4 -7 5 -19 3 -27 -8 -20 17 -50 33 -40
11 7 9 10 -6 16 -15 6 -12 8 14 8 17 1 32 -4 32 -10 0 -5 4 -8 10 -4 5 3 2 14
-7 25 -12 13 -21 16 -29 10 -14 -13 -34 9 -37 39 -1 12 -7 21 -13 21 -7 0 -11
-6 -10 -12z"/>
<path d="M1955 2130 c-3 -5 -2 -10 4 -10 5 0 13 5 16 10 3 6 2 10 -4 10 -5 0
-13 -4 -16 -10z"/>
<path d="M930 2099 c0 -5 5 -7 10 -4 6 3 10 8 10 11 0 2 -4 4 -10 4 -5 0 -10
-5 -10 -11z"/>
<path d="M733 2093 c9 -2 23 -2 30 0 6 3 -1 5 -18 5 -16 0 -22 -2 -12 -5z"/>
<path d="M910 2074 c0 -8 5 -12 10 -9 6 4 8 11 5 16 -9 14 -15 11 -15 -7z"/>
<path d="M2025 2080 c4 -6 11 -8 16 -5 14 9 11 15 -7 15 -8 0 -12 -5 -9 -10z"/>
<path d="M1936 2066 c10 -8 21 -12 24 -10 5 6 -21 24 -34 24 -6 0 -1 -6 10
-14z"/>
<path d="M2025 2049 c-10 -15 3 -25 16 -12 7 7 7 13 1 17 -6 3 -14 1 -17 -5z"/>
<path d="M760 2030 c19 -13 30 -13 30 0 0 6 -10 10 -22 10 -19 0 -20 -2 -8
-10z"/>
<path d="M877 2025 c3 -8 9 -12 14 -9 12 7 11 11 -5 17 -10 4 -13 1 -9 -8z"/>
<path d="M1918 2020 c-23 -26 0 -32 31 -9 28 22 47 24 54 7 3 -8 6 -6 6 5 1
24 -68 22 -91 -3z"/>
<path d="M2048 2003 c7 -3 16 -2 19 1 4 3 -2 6 -13 5 -11 0 -14 -3 -6 -6z"/>
<path d="M730 1985 c-14 -16 -10 -18 14 -9 9 3 16 10 16 15 0 14 -16 11 -30
-6z"/>
<path d="M1920 1976 c7 -7 14 -6 21 1 9 9 7 12 -9 10 -14 -1 -18 -5 -12 -11z"/>
<path d="M657 1965 c-8 -20 -4 -29 11 -24 5 2 6 13 2 23 -6 19 -7 19 -13 1z"/>
<path d="M1970 1960 c0 -5 11 -10 25 -10 14 0 25 5 25 10 0 6 -11 10 -25 10
-14 0 -25 -4 -25 -10z"/>
<path d="M830 1941 c0 -6 4 -13 10 -16 6 -3 7 1 4 9 -7 18 -14 21 -14 7z"/>
<path d="M1560 1922 c0 -5 39 -17 86 -27 47 -10 116 -32 152 -50 115 -55 227
-73 192 -30 -7 8 -21 15 -32 15 -10 0 -16 5 -13 10 4 6 -6 10 -23 10 -37 0
-95 24 -85 35 5 4 -4 6 -19 3 -15 -3 -25 -2 -23 2 3 5 -16 13 -43 18 -70 16
-192 25 -192 14z"/>
<path d="M3968 1913 c7 -3 16 -2 19 1 4 3 -2 6 -13 5 -11 0 -14 -3 -6 -6z"/>
<path d="M1990 1891 c0 -5 5 -13 10 -16 6 -3 10 -2 10 4 0 5 -4 13 -10 16 -5
3 -10 2 -10 -4z"/>
<path d="M770 1880 c0 -5 7 -10 16 -10 8 0 12 5 9 10 -3 6 -10 10 -16 10 -5 0
-9 -4 -9 -10z"/>
<path d="M716 1867 c3 -10 9 -15 12 -12 3 3 0 11 -7 18 -10 9 -11 8 -5 -6z"/>
<path d="M3962 1861 c4 -13 18 -16 19 -4 0 4 -5 9 -11 12 -7 2 -11 -2 -8 -8z"/>
<path d="M3796 1835 c-3 -8 -1 -15 4 -15 13 0 22 18 11 24 -5 3 -11 -1 -15 -9z"/>
<path d="M560 1724 c0 -8 5 -12 10 -9 6 4 8 11 5 16 -9 14 -15 11 -15 -7z"/>
<path d="M3820 1606 c0 -9 5 -16 10 -16 6 0 10 4 10 9 0 6 -4 13 -10 16 -5 3
-10 -1 -10 -9z"/>
</g>
</svg>
